<svg xmlns="http://www.w3.org/2000/svg" viewBox="0 0 741.74 741.74"><g id="Layer_2" data-name="Layer 2"><g id="Layer_1-2" data-name="Layer 1"><path id="Gear" d="M689.07,279.27H644a2.62,2.62,0,0,1-2.47-1.75,286.51,286.51,0,0,0-13.25-32,2.66,2.66,0,0,1,.5-3l31.89-31.88a52.76,52.76,0,0,0,0-74.48l-55.06-55a52.28,52.28,0,0,0-37.22-15.44h0a52.27,52.27,0,0,0-36.78,15L499.21,113a2.65,2.65,0,0,1-3.06.48,283.36,283.36,0,0,0-32-13.16,2.65,2.65,0,0,1-1.77-2.51V52.65A52.76,52.76,0,0,0,409.8,0H331.93a52.72,52.72,0,0,0-52.66,52.66V97.81a2.61,2.61,0,0,1-1.75,2.48,285.58,285.58,0,0,0-32,13.25,2.66,2.66,0,0,1-3-.5L210.65,81.11a52.32,52.32,0,0,0-37.24-15.44h0A52.35,52.35,0,0,0,136.15,81.1l-55,55.05a52.65,52.65,0,0,0,0,74.49L113,242.51a2.68,2.68,0,0,1,.5,3.08,283.55,283.55,0,0,0-13.18,31.92,2.63,2.63,0,0,1-2.5,1.76H52.66A52.72,52.72,0,0,0,0,331.93V409.8a52.74,52.74,0,0,0,52.66,52.67H97.83a2.6,2.6,0,0,1,2.45,1.68,287.21,287.21,0,0,0,13.26,32,2.64,2.64,0,0,1-.52,3L81.11,531.09a52.65,52.65,0,0,0-.46,74l55.51,55.53a52.76,52.76,0,0,0,74.48,0l31.86-31.87a2.67,2.67,0,0,1,3.05-.51,287.15,287.15,0,0,0,32,13.25,2.63,2.63,0,0,1,1.76,2.49v45.07a52.74,52.74,0,0,0,52.66,52.67H409.8a52.73,52.73,0,0,0,52.67-52.67V644a2.59,2.59,0,0,1,1.68-2.45,288.15,288.15,0,0,0,32-13.26,2.63,2.63,0,0,1,3,.5l31.88,31.89a52.74,52.74,0,0,0,74.46,0l55.13-55.08a52.75,52.75,0,0,0,0-74.47l-31.88-31.88a2.65,2.65,0,0,1-.5-3,285.69,285.69,0,0,0,13.25-32,2.62,2.62,0,0,1,2.49-1.76h45.07a52.73,52.73,0,0,0,52.67-52.67V331.92A52.73,52.73,0,0,0,689.07,279.27ZM518.15,370.82v0c0,81.21-66.08,147.28-147.29,147.29h0c-81.21,0-147.3-66.07-147.31-147.29A147.31,147.31,0,0,1,370.82,223.53h0C452.05,223.53,518.14,289.6,518.15,370.82Z"/></g></g></svg>