<svg xmlns="http://www.w3.org/2000/svg" viewBox="0 0 599.4 599.4"><defs><style>.cls-1{fill:none;stroke:#000;stroke-miterlimit:10;stroke-width:20px;}</style></defs><g id="Layer_2" data-name="Layer 2"><g id="Layer_1-2" data-name="Layer 1"><g id="Strike_4" data-name="Strike 4"><rect y="577.84" width="599.4" height="21.55"/><rect x="45.79" y="10" width="20" height="589.4"/><path class="cls-1" d="M45.79,10h276.8"/><path class="cls-1" d="M322.59,122.8V0"/><path d="M307.47,347.21V249.88l-48.63-48.63L280.05,180l27.42,27.42V185.07a46.82,46.82,0,1,1,30,0v22.39L364.88,180l21.21,21.21-48.62,48.63v97.33Z"/><path d="M322.47,98.89a41.82,41.82,0,0,1,10,82.43v38.21l32.41-32.42L379,201.25l-46.55,46.56v94.4h-20v-94.4l-46.56-46.56,14.14-14.14,32.42,32.42V181.32a41.82,41.82,0,0,1,10-82.43m0-10a51.83,51.83,0,0,0-20,99.64v6.85L287.12,180,280.05,173,273,180l-14.14,14.14-7.07,7.07,7.07,7.08L302.47,252V352.21h40V252l43.62-43.62,7.08-7.08-7.08-7.07L372,180,364.88,173,357.81,180l-15.34,15.34v-6.85a51.83,51.83,0,0,0-20-99.64Z"/></g></g></g></svg>