<svg xmlns="http://www.w3.org/2000/svg" viewBox="0 0 599.4 599.4"><defs><style>.cls-1{fill:none;stroke:#000;stroke-miterlimit:10;stroke-width:20px;}</style></defs><g id="Layer_2" data-name="Layer 2"><g id="Layer_1-2" data-name="Layer 1"><g id="Strike_2" data-name="Strike 2"><rect y="577.84" width="599.4" height="21.55"/><rect x="45.79" y="10" width="20" height="589.4"/><path class="cls-1" d="M45.79,10h276.8"/><path class="cls-1" d="M322.59,122.8V0"/><path d="M307.47,347.21V185.07a46.82,46.82,0,1,1,30,0V347.21Z"/><path d="M322.47,98.89a41.82,41.82,0,0,1,10,82.43V342.21h-20V181.32a41.82,41.82,0,0,1,10-82.43m0-10a51.83,51.83,0,0,0-20,99.64V352.21h40V188.53a51.83,51.83,0,0,0-20-99.64Z"/></g></g></g></svg>